<?xml version="1.0" encoding="UTF-8" standalone="no"?> <svg id="Layer_1" data-name="Layer 1" xmlns="http://www.w3.org/2000/svg" viewBox="0 0 512 512"><title>Screen Recording</title><path d="M256,362.653A106.653,106.653,0,1,1,362.653,256,106.774,106.774,0,0,1,256,362.653Zm0-170.64A63.986,63.986,0,1,0,319.986,256,64.059,64.059,0,0,0,256,192.014Z"/><path d="M64,192a21.333,21.333,0,0,1-21.333-21.333v-64a64.073,64.073,0,0,1,64-64h64a21.333,21.333,0,1,1,0,42.667h-64a21.357,21.357,0,0,0-21.333,21.333v64A21.333,21.333,0,0,1,64,192Z"/><path d="M405.333,469.333h-64a21.333,21.333,0,0,1,0-42.667h64a21.357,21.357,0,0,0,21.333-21.333v-64a21.333,21.333,0,0,1,42.667,0v64A64.073,64.073,0,0,1,405.333,469.333Z"/><path d="M448,192a21.333,21.333,0,0,1-21.333-21.333v-64a21.357,21.357,0,0,0-21.333-21.333h-64a21.333,21.333,0,0,1,0-42.667h64a64.073,64.073,0,0,1,64,64v64A21.333,21.333,0,0,1,448,192Z"/><path d="M170.667,469.333h-64a64.073,64.073,0,0,1-64-64v-64a21.333,21.333,0,0,1,42.667,0v64a21.357,21.357,0,0,0,21.333,21.333h64a21.333,21.333,0,1,1,0,42.667Z"/></svg>